HIERARCHY
ROOT Hips
{
	OFFSET -3.958830 18.904000 13.208200
	CHANNELS 6 Xposition Yposition Zposition Zrotation Yrotation Xrotation 
	JOINT LHipJoint
	{
		OFFSET 0.000000 0.000000 0.000000
		CHANNELS 3 Zrotation Yrotation Xrotation
		JOINT LeftUpLeg
		{
			OFFSET 1.800000 -1.400000 0.085000
			CHANNELS 3 Zrotation Yrotation Xrotation
			JOINT LeftLeg
			{
				OFFSET 2.215000 -6.000000 0.000000
				CHANNELS 3 Zrotation Yrotation Xrotation
				JOINT LeftFoot
				{
					OFFSET 2.500000 -6.900000 0.000000
					CHANNELS 3 Zrotation Yrotation Xrotation
					JOINT LeftToeBase
					{
						OFFSET 0.200000 -0.500000 1.950000
						CHANNELS 3 Zrotation Yrotation Xrotation
						End Site
						{
							OFFSET 0.000000 0.000000 0.000000
						}
					}
				}
			}
		}
	}
	JOINT RHipJoint
	{
		OFFSET 0.000000 0.000000 0.000000
		CHANNELS 3 Zrotation Yrotation Xrotation
		JOINT RightUpLeg
		{
			OFFSET -1.800000 -1.400000 0.085000
			CHANNELS 3 Zrotation Yrotation Xrotation
			JOINT RightLeg
			{
				OFFSET -2.215000 -6.000000 0.000000
				CHANNELS 3 Zrotation Yrotation Xrotation
				JOINT RightFoot
				{
					OFFSET -2.500000 -6.900000 0.000000
					CHANNELS 3 Zrotation Yrotation Xrotation
					JOINT RightToeBase
					{
						OFFSET -0.200000 -0.500000 1.950000
						CHANNELS 3 Zrotation Yrotation Xrotation
						End Site
						{
							OFFSET 0.000000 0.000000 0.000000
						}
					}
				}
			}
		}
	}
	JOINT LowerBack
	{
		OFFSET 0.000000 0.000000 0.000000
		CHANNELS 3 Zrotation Yrotation Xrotation
		JOINT Spine
		{
			OFFSET -0.087000 1.940000 -0.288900
			CHANNELS 3 Zrotation Yrotation Xrotation
			JOINT Spine1
			{
				OFFSET 0.000000 1.950000 0.060000
				CHANNELS 3 Zrotation Yrotation Xrotation
				JOINT Neck
				{
					OFFSET 0.000000 0.000000 0.000000
					CHANNELS 3 Zrotation Yrotation Xrotation
					JOINT Neck1
					{
						OFFSET 0.000000 1.600000 0.340000
						CHANNELS 3 Zrotation Yrotation Xrotation
						JOINT Head
						{
							OFFSET 0.000000 1.667000 -0.240000
							CHANNELS 3 Zrotation Yrotation Xrotation
							End Site
							{
								OFFSET 0.000000 0.000000 0.000000
							}
						}
					}
				}
				JOINT LeftShoulder
				{
					OFFSET 0.000000 0.000000 0.000000
					CHANNELS 3 Zrotation Yrotation Xrotation
					JOINT LeftArm
					{
						OFFSET 2.700000 1.550000 -0.730000
						CHANNELS 3 Zrotation Yrotation Xrotation
						JOINT LeftForeArm
						{
							OFFSET 5.450000 0.000000 0.000000
							CHANNELS 3 Zrotation Yrotation Xrotation
							JOINT LeftHand
							{
								OFFSET 3.450000 0.000000 0.000000
								CHANNELS 3 Zrotation Yrotation Xrotation
								JOINT LeftHandIndex1
								{
									OFFSET 0.750000 0.000000 0.000000
									CHANNELS 3 Zrotation Yrotation Xrotation
									End Site
									{
										OFFSET 0.000000 0.000000 0.000000
									}
								}
							}
						}
					}
				}
				JOINT RightShoulder
				{
					OFFSET 0.000000 0.000000 0.000000
					CHANNELS 3 Zrotation Yrotation Xrotation
					JOINT RightArm
					{
						OFFSET -2.700000 1.550000 -0.730000
						CHANNELS 3 Zrotation Yrotation Xrotation
						JOINT RightForeArm
						{
							OFFSET -5.450000 0.000000 0.000000
							CHANNELS 3 Zrotation Yrotation Xrotation
							JOINT RightHand
							{
								OFFSET -3.450000 0.000000 0.000000
								CHANNELS 3 Zrotation Yrotation Xrotation
								JOINT RightHandIndex1
								{
									OFFSET -0.750000 0.000000 0.000000
									CHANNELS 3 Zrotation Yrotation Xrotation
									End Site
									{
										OFFSET 0.000000 0.000000 0.000000
									}
								}
							}
						}
					}
				}
			}
		}
	}
}
MOTION
Frames: 12
Frame Time: 0.016667
-1.024430 17.493320 -1.794100 -4.218052 -2.855721 -8.257959 -14.943100 13.806107 3.130000 23.627743 -0.399731 -5.253287 -8.258468 7.583874 11.939470 0.001446 5.795345 2.832607 0.337050 -0.073370 0.078280 18.247433 -11.161980 2.290156 -10.592459 -1.044356 -7.268261 8.481367 -7.432880 18.563280 -0.392597 -4.350807 3.227321 -0.131920 0.446540 0.137720 -3.777053 -2.491871 -7.746696 6.782345 -4.929824 21.222899 -9.103958 -1.378035 9.492425 1.030201 -9.815269 -15.222741 -24.133066 -0.108510 36.065130 7.086440 -11.572900 -7.107950 -0.451068 -15.802415 7.859356 13.463626 -3.489503 2.844763 138.048996 -49.468111 -99.359873 -3.721937 2.755345 0.554080 0.068730 -0.131510 0.379380 -0.688174 23.435288 9.498998 -10.746854 -8.400283 -13.691729 -106.654012 6.423111 -12.633340 2.371689 -2.195661 -0.177890 0.320640 -0.042970 -0.043800 
-1.072090 17.607040 -1.824090 -3.847351 -2.793850 -9.196467 -14.915388 13.675765 3.162371 23.248195 -0.145915 -3.404125 -8.221323 7.052605 8.952973 0.075912 5.638342 2.919837 0.342090 -0.046840 0.074860 18.297761 -11.112990 2.337764 -10.931048 -1.406262 -5.309508 8.693224 -7.102952 15.801660 -0.457718 -4.252268 3.270586 -0.154210 0.397420 0.116660 -3.892547 -2.426412 -7.754663 7.256896 -5.214657 22.613455 -10.345752 -1.139146 10.679341 1.166391 -10.682095 -15.691239 -26.758359 -0.244809 36.150232 10.763300 -13.136370 -11.822190 1.541237 -17.092407 7.741316 14.401185 -7.790053 1.673160 136.897731 -45.033209 -91.570048 -3.652265 2.666713 0.604880 -0.016280 -0.067020 0.380890 -2.807926 25.116899 10.222017 -13.263760 -10.232876 -14.207802 -98.165228 6.656478 -10.987197 2.540474 -2.097912 -0.154000 0.335120 -0.062980 -0.023770 
-1.113340 17.701730 -1.833670 -3.576202 -3.050880 -8.903725 -14.843992 13.454491 3.174234 22.554637 -0.080252 -2.482214 -8.195217 6.525346 6.295145 0.086702 5.491373 2.992770 0.332560 -0.046510 0.059970 18.403736 -11.113418 2.382234 -10.893832 -1.557059 -4.693868 8.312757 -6.629326 13.320019 -0.475712 -4.114951 3.332971 -0.169630 0.392820 0.109730 -4.144691 -2.132318 -7.717105 8.633717 -5.479879 21.354262 -12.572727 -0.843693 12.361599 1.263085 -10.629328 -16.113483 -27.487654 -0.227927 37.303081 12.543940 -13.968030 -13.481670 4.126315 -18.487006 7.710181 15.118922 -12.248619 0.733833 134.294305 -41.930579 -83.233506 -3.646219 2.556930 0.634200 -0.042470 -0.040640 0.379760 -5.680814 26.072863 10.918610 -14.592188 -9.869952 -14.443499 -89.217346 5.794795 -8.535344 2.681565 -2.022268 -0.149900 0.358640 -0.053180 -0.014850 
-1.153090 17.788120 -1.832300 -3.238387 -3.082250 -7.853191 -14.762947 13.351751 3.180546 21.601830 -0.132494 -2.800572 -7.908779 6.085874 4.663165 0.090980 5.213256 3.107533 0.287600 -0.085310 0.068390 18.487680 -11.115346 2.461882 -10.821713 -1.571674 -5.007649 8.124540 -6.203694 11.193317 -0.493130 -3.846753 3.455700 -0.224920 0.353790 0.021220 -4.379218 -1.991886 -7.745674 9.584056 -5.869042 19.806534 -14.464719 -1.093464 11.307292 1.429260 -10.656028 -17.388644 -30.400945 1.782471 41.335208 16.414600 -14.697660 -15.164840 4.718271 -20.829707 7.673636 17.701543 -17.361850 0.278160 132.506947 -39.984491 -75.418279 -3.553594 2.330558 0.729130 -0.132650 0.022660 0.371820 -6.485380 28.146779 12.128083 -18.082718 -8.998518 -13.225731 -78.845139 6.085609 -6.009086 2.846543 -1.778043 -0.191180 0.432690 -0.069510 -0.025090 
-1.204320 17.853710 -1.840260 -2.997393 -4.188504 -6.869369 -14.747311 13.333938 3.197799 21.187001 -0.129099 -3.068324 -7.843869 5.904347 3.813754 0.081298 5.118328 3.143881 0.244040 -0.138110 0.066050 18.514419 -11.037273 2.503907 -10.307024 -1.376087 -5.689163 7.645357 -5.775752 9.706091 -0.486345 -3.576487 3.570616 -0.283020 0.346960 -0.014750 -4.425533 -2.101245 -7.740046 9.915310 -5.928833 18.327067 -15.535408 -1.068676 11.013525 1.777454 -10.750945 -18.371194 -32.961787 3.239566 44.010229 18.938950 -15.243850 -17.480040 6.551013 -22.207537 7.702908 17.976181 -23.007479 -0.044595 128.970546 -40.715716 -71.263357 -3.538538 2.124815 0.804860 -0.183160 0.059310 0.349120 -8.872213 29.636458 12.844160 -21.763258 -6.535500 -12.522309 -65.959723 4.628393 -3.319616 2.981497 -1.561370 -0.214310 0.492510 -0.041150 -0.035500 
-1.243410 17.901780 -1.840670 -3.471061 -5.165645 -5.028639 -14.667851 13.250830 3.234611 21.364315 -0.292842 -4.426683 -8.156352 5.827748 3.568504 0.072657 5.001232 3.150400 0.238920 -0.143100 0.099070 18.595281 -11.021867 2.540953 -9.104108 -0.989728 -7.360125 7.301103 -5.495710 9.354069 -0.486898 -3.285306 3.670680 -0.324210 0.302280 -0.020200 -4.638432 -2.002824 -7.741134 12.013455 -6.397859 16.240974 -17.950840 -1.672024 9.579608 2.229679 -9.653241 -19.691931 -32.549273 4.677649 48.003311 19.310990 -14.667030 -17.507540 8.340540 -23.956809 7.557136 19.061595 -28.030111 -0.122679 124.284371 -43.831751 -68.800216 -3.476043 1.952768 0.864420 -0.225130 0.126070 0.337680 -11.721959 30.627411 13.508108 -23.952128 -3.655686 -11.655808 -52.817391 2.620366 -1.329727 3.109079 -1.375867 -0.201590 0.504070 -0.047430 -0.049260 
-1.278150 17.938320 -1.860520 -4.407803 -6.315543 -4.429522 -14.537109 13.065774 3.243393 22.357042 -0.392578 -4.738119 -8.750116 5.996160 4.019890 0.190106 4.871914 3.111155 0.338830 -0.040580 0.256550 18.712619 -11.133818 2.636417 -7.915816 -0.801834 -8.021932 7.449246 -5.406155 9.090458 -0.606738 -3.078241 3.682900 -0.362930 0.059620 -0.008600 -4.955202 -1.503000 -7.775419 14.519593 -7.831968 16.754106 -20.515968 -3.462616 7.507256 3.196224 -8.927938 -22.025010 -33.887280 7.314374 53.422665 20.803510 -13.047510 -21.167030 9.775976 -25.693833 7.615543 20.260538 -30.103741 -1.345204 118.693252 -44.429054 -62.103190 -3.262224 1.946201 0.974580 -0.399070 0.316070 0.310940 -15.037512 32.534539 14.315487 -27.355774 -1.587144 -10.529575 -37.713501 -1.491295 0.576808 3.386554 -1.077292 -0.093130 0.382210 -0.172470 -0.084600 
-1.330340 17.963030 -1.859760 -4.157386 -5.745957 -3.674115 -14.508842 12.975200 3.217322 22.332996 -0.480961 -5.594276 -9.161756 6.026577 4.158691 0.178340 4.775133 3.104140 0.363430 -0.019680 0.321500 18.759962 -11.120244 2.627256 -7.734598 -0.686380 -8.725996 7.228342 -5.246004 8.770679 -0.615612 -2.938298 3.704752 -0.367010 -0.038970 -0.041410 -5.065366 -1.426050 -7.717034 15.070859 -8.692939 15.728244 -22.531721 -4.515530 7.366537 3.819913 -8.648708 -22.716710 -34.675823 8.101970 55.308317 20.814830 -12.580170 -23.534650 11.550069 -25.848143 7.175904 19.455067 -33.654400 -1.358134 116.105218 -46.056026 -61.288610 -3.188084 1.865863 1.015310 -0.473740 0.358960 0.272730 -18.196160 32.969409 13.525367 -29.559390 0.631923 -8.909143 -25.304974 -4.518019 1.136117 3.412282 -0.667615 -0.080710 0.357860 -0.201680 -0.116500 
-1.378740 17.975800 -1.860580 -3.357141 -4.765646 -2.334581 -14.559675 13.184895 3.233349 21.677824 -0.542298 -8.243922 -9.379971 6.164080 5.597229 0.097807 4.668808 3.109346 0.331990 -0.068420 0.293670 18.687828 -11.005395 2.616283 -7.780601 -0.272574 -10.321223 7.046377 -5.145223 9.157846 -0.565260 -2.760626 3.772086 -0.400690 -0.023040 -0.027910 -4.895886 -1.963150 -7.684034 14.549154 -9.219770 14.270749 -23.832715 -5.337487 6.229945 4.837316 -7.997538 -23.964220 -34.849475 9.015186 56.805813 18.392220 -12.428630 -21.686000 12.771991 -26.201601 7.067638 15.509246 -36.228730 1.263827 119.658494 -48.621888 -69.022512 -3.226853 1.769369 1.038100 -0.458750 0.355130 0.269990 -21.313951 33.960587 12.244495 -29.293252 3.312715 -7.486145 -17.907206 -5.754115 1.185331 3.299813 -0.350565 -0.090150 0.367080 -0.163950 -0.123140 
-1.418560 17.977340 -1.858090 -3.233517 -5.246584 -0.621466 -14.569554 13.280571 3.228498 21.312021 -0.609638 -10.193703 -9.119636 6.175208 6.354923 0.073942 4.505729 3.131718 0.315330 -0.086150 0.298960 18.673492 -10.927199 2.611451 -7.443407 0.312954 -12.595120 7.259301 -5.143106 10.243623 -0.516215 -2.553225 3.835663 -0.431910 -0.048850 -0.045430 -4.858952 -2.186149 -7.617299 15.766783 -9.064452 12.426978 -25.467366 -5.443704 4.856101 5.387120 -7.235530 -25.137887 -35.132376 9.946408 59.124977 18.284980 -13.050000 -19.955410 13.823109 -26.468751 7.193891 12.577906 -37.325894 2.917956 120.015211 -50.187215 -71.731312 -3.204289 1.684707 1.047460 -0.477080 0.373170 0.258990 -23.297057 34.696215 10.982858 -28.199092 5.531885 -6.218994 -14.524142 -4.911002 1.149436 3.204128 -0.213664 -0.079980 0.362530 -0.165490 -0.125600 
-1.467010 17.954100 -1.849660 -2.907716 -5.628014 0.021754 -14.578686 13.317786 3.165662 21.071632 -0.568568 -10.615968 -8.850452 6.222757 6.825769 0.051094 4.478924 3.160079 0.335600 -0.063940 0.317550 18.686303 -10.882835 2.565818 -7.340805 0.546346 -13.594287 7.302882 -5.188781 11.255756 -0.484022 -2.510640 3.862159 -0.404430 -0.026690 -0.076700 -4.877930 -2.298722 -7.511807 16.301557 -8.770960 10.970982 -26.667625 -4.787831 5.696505 5.487981 -6.984164 -24.683241 -34.651084 9.374597 59.666248 17.295530 -13.751900 -19.127160 14.579976 -26.551784 7.213746 10.973080 -37.501731 3.589626 119.776620 -51.602866 -73.782307 -3.204761 1.606682 1.024800 -0.468640 0.355810 0.283530 -24.434102 34.563995 9.629952 -27.248524 7.467119 -5.622783 -13.646985 -4.892845 1.086339 3.163678 -0.210674 -0.097310 0.410870 -0.187690 -0.116070 
-1.510310 17.926690 -1.872690 -2.840920 -7.632343 -1.375724 -14.547038 13.249099 3.078749 21.682363 -0.233545 -8.524647 -9.036979 6.524416 7.278804 0.051939 4.720710 3.085878 0.393080 0.005170 0.325530 18.729210 -11.017536 2.523663 -7.286684 0.502870 -12.800782 7.069865 -5.344563 12.413836 -0.516277 -2.686482 3.782937 -0.338540 0.004140 -0.047780 -4.967617 -1.932660 -7.464264 15.906985 -8.425998 12.049693 -26.110133 -3.641425 8.290075 5.266163 -7.495339 -23.721805 -34.716469 9.638432 59.029507 17.728000 -13.067880 -20.308700 14.747014 -26.439532 7.477369 10.228978 -34.950707 3.360537 122.018322 -51.323995 -77.665492 -3.266222 1.726927 1.010520 -0.445210 0.343420 0.298780 -24.315124 34.335369 9.244958 -27.974728 7.852138 -6.107615 -14.640071 -4.421616 0.928306 3.119664 -0.321036 -0.091220 0.425660 -0.184060 -0.107970 
